<?xml version="1.0" encoding="UTF-8"?>
<svg xmlns="http://www.w3.org/2000/svg" xmlns:xlink="http://www.w3.org/1999/xlink" width="92" height="27" viewBox="0 0 92 27">
  <defs>
    <clipPath id="clip-path">
      <rect id="Rectangle_12" data-name="Rectangle 12" width="92" height="27" transform="translate(0 0)" fill="none"></rect>
    </clipPath>
  </defs>
  <g id="logo" clip-path="url(#clip-path)">
    <path id="Path_26" data-name="Path 26" d="M23.419,23.38a13.666,13.666,0,0,1-9.753,3.877A13.685,13.685,0,0,1,3.884,23.38,13.913,13.913,0,0,1,0,13.643,13.832,13.832,0,0,1,3.884,3.877,13.809,13.809,0,0,1,13.666,0a13.69,13.69,0,0,1,9.753,3.877A13.881,13.881,0,0,1,27.3,13.643a13.913,13.913,0,0,1-3.884,9.737M8.819,8.8a7.125,7.125,0,0,0-1.9,4.956,6.674,6.674,0,0,0,6.745,6.7,6.375,6.375,0,0,0,4.789-1.953,7.131,7.131,0,0,0,1.927-4.839,7.019,7.019,0,0,0-1.927-4.839,6.986,6.986,0,0,0-4.789-2.011A6.76,6.76,0,0,0,8.819,8.8" transform="translate(0.003 -0.139)" fill="#111827"></path>
    <path id="Path_27" data-name="Path 27" d="M116.238,0l6.541,16.587L129.407,0h7.709L125.495,27.257h-5.519L108.5,0Z" transform="translate(-76.814 -0.139)" fill="#111827"></path>
    <path id="Path_28" data-name="Path 28" d="M235.3,27.257V0h9.023c2.657,0,7.125.379,10.541,3.761a13.454,13.454,0,0,1,3.708,9.941,12.838,12.838,0,0,1-3.446,9.445,14.225,14.225,0,0,1-10.191,4.14H235.3Zm6.716-6.5h1.489c1.781,0,4.263-.146,6.19-1.837a6.655,6.655,0,0,0,2.161-5.247,7.244,7.244,0,0,0-2.19-5.568c-1.723-1.458-4.03-1.6-5.84-1.6h-1.781V20.756Z" transform="translate(-166.588 -0.139)" fill="#111827"></path>
  </g>
</svg>
